HIERARCHY
ROOT pelvis
{
  OFFSET 0 100 0
  CHANNELS 6 Xposition Yposition Zposition Zrotation Xrotation Yrotation
  JOINT pelvis_right_femur
  {
    OFFSET -10.78128 -3.44521 -0.5502486
    CHANNELS 3 Zrotation Xrotation Yrotation
    JOINT right_femur_tibia
    {
      OFFSET -0.8047443 -44.0398 -0.1307829
      CHANNELS 3 Zrotation Xrotation Yrotation
      JOINT right_tibia_foot
      {
        OFFSET 3.006224 -47.83518 -5
        CHANNELS 3 Zrotation Xrotation Yrotation
        End Site
        {
          OFFSET 0 -5 15
        }
      }
    }
  }
  JOINT pelvis_left_femur
  {
    OFFSET 10.78128 -3.44521 -0.5502486
    CHANNELS 3 Zrotation Xrotation Yrotation
    JOINT left_femur_tibia
    {
      OFFSET 0.8047443 -44.0398 -0.1307829
      CHANNELS 3 Zrotation Xrotation Yrotation
      JOINT left_tibia_foot
      {
        OFFSET -4.370144 -48.10324 -4.275266
        CHANNELS 3 Zrotation Xrotation Yrotation
        End Site
        {
          OFFSET 0 -5 15
        }
      }
    }
  }
  JOINT pelvis_spine1
  {
    OFFSET 0 6.468898 -3.129235
    CHANNELS 3 Zrotation Xrotation Yrotation
    JOINT spine1
    {
      OFFSET 0 23.15396 4.99043
      CHANNELS 3 Zrotation Xrotation Yrotation
      JOINT spine2
      {
        OFFSET 0 20.79997 -5.064912
        CHANNELS 3 Zrotation Xrotation Yrotation
        JOINT neck
        {
          OFFSET 0 14.38658 9.616178
          CHANNELS 3 Zrotation Xrotation Yrotation
          End Site
          {
            OFFSET 0 20 0
          }
        }
      }
      JOINT right_manubrium
      {
        OFFSET -5.722621 16.35077 3.967754
        CHANNELS 3 Zrotation Xrotation Yrotation
        JOINT right_clavicle
        {
          OFFSET -13.16364 1.694482 -4.693211
          CHANNELS 3 Zrotation Xrotation Yrotation
          JOINT right_humerus
          {
            OFFSET -28.5034 -0.3100689 -2.792744
            CHANNELS 3 Zrotation Xrotation Yrotation
            JOINT right_radius
            {
              OFFSET -25.15693 0.02248979 -1.271978
              CHANNELS 3 Zrotation Xrotation Yrotation
              End Site
              {
                OFFSET -15 0 0
              }
            }
          }
        }
      }
      JOINT left_manubrium
      {
        OFFSET 5.722621 16.35077 3.967754
        CHANNELS 3 Zrotation Xrotation Yrotation
        JOINT left_clavicle
        {
          OFFSET 13.16364 1.694482 -4.693211
          CHANNELS 3 Zrotation Xrotation Yrotation
          JOINT left_humerus
          {
            OFFSET 29.39168 -1.063119 -2.237045
            CHANNELS 3 Zrotation Xrotation Yrotation
            JOINT left_radius
            {
              OFFSET 24.59957 -0.9528479 0.9047498
              CHANNELS 3 Zrotation Xrotation Yrotation
              End Site
              {
                OFFSET 15 -0 -0
              }
            }
          }
        }
      }
    }
  }
}
MOTION
Frames: 15
Frame Time: 0.0416666666667
-1702.491 121.2219 888.6792 -8.277208 12.55268 -154.86 -3.217152 11.88364 -6.013945 -0 39.97614 -0 -14.14852 7.887909 4.911874 -3.895551 -4.04506 -17.39197 -0 8.444089 -0 0.1577891 -8.202489 20.75516 -0.8040809 -1.560266 3.309424 -4.480214 13.42959 0.5623658 4.615707 26.89072 4.441592 3.34771 -15.99219 8.798319 -0.8993611 -22.25741 10.62796 89.09617 17.74483 -5.829366 -0 0 13.88374 -34.64231 14.84557 20.61753 5.428074 -18.23985 -8.906226 -91.87505 17.78674 21.16527 0 0 -5.340387 11.19862 22.97654 -1.347857
-1705.589 121.3756 884.4936 -8.620839 12.38727 -154.6213 -3.829357 8.395222 -6.853792 -0 41.47148 -0 -15.43842 9.893516 5.584317 -4.392466 -2.183533 -17.00917 -0 7.684761 -0 1.35787 -9.069035 20.67879 -1.294061 -1.193164 3.017769 -4.49523 13.81734 0.1922199 4.099545 26.79769 5.008483 4.197569 -15.49651 8.14224 -0.1171098 -21.56344 11.01448 89.07307 19.25099 -6.84699 -0 0 12.57895 -34.25785 13.93284 19.61526 6.02609 -19.6123 -9.461731 -90.21976 15.91655 18.6802 0 0 -7.28548 13.93854 21.93273 -4.701294
-1708.574 121.4495 880.5091 -8.795238 12.02584 -154.381 -4.350378 4.166621 -7.678284 -0 42.24326 -0 -16.54364 11.20524 6.104588 -4.817828 -0.1923059 -16.40055 -0 6.433655 -0 2.858082 -9.997882 20.61876 -1.789776 -0.8578645 2.763367 -4.352846 14.24253 -0.3988411 3.483764 26.52406 5.583615 5.035134 -15.0074 7.389019 0.7851673 -20.91205 11.45185 88.95991 21.00974 -8.033159 -0 0 11.42226 -33.60997 13.06403 18.43216 6.690759 -21.18831 -9.93313 -88.52542 13.54515 16.05676 0 0 -9.580464 16.9199 20.45037 -8.431429
-1711.447 121.3746 876.7283 -8.747532 11.43687 -154.1944 -4.736782 -0.6173394 -8.411212 -0 41.95754 -0 -17.2376 11.5621 6.372995 -5.165929 1.822516 -15.642 -0 4.747188 -0 4.554717 -10.98076 20.60633 -2.259271 -0.5991112 2.59635 -4.040263 14.64053 -1.184363 2.821375 26.05868 6.119726 5.798928 -14.5717 6.603601 1.759112 -20.3341 11.89214 88.72473 22.91465 -9.307414 -0 0 10.55845 -32.67512 12.29009 17.10244 7.428192 -22.84527 -10.22958 -86.96887 10.78594 13.46172 0 0 -12.10623 19.91622 18.56844 -12.29925
-1714.223 121.0922 873.1295 -8.455282 10.61788 -154.1099 -4.934842 -5.628075 -8.967795 -0 40.40419 -0 -17.3379 10.87856 6.338822 -5.441187 3.727647 -14.8371 -0 2.852031 -0 6.247332 -12.00861 20.64071 -2.66638 -0.4570972 2.56467 -3.572321 14.93773 -2.098499 2.179995 25.41934 6.568721 6.429969 -14.25119 5.863449 2.724447 -19.85827 12.28047 88.35697 24.77449 -10.57561 -0 0 10.10663 -31.45426 11.62791 15.67787 8.228118 -24.42186 -10.27766 -85.7238 7.903002 11.10617 0 0 -14.68766 22.62155 16.44113 -15.94488
-1716.923 120.5756 869.6624 -7.925365 9.606299 -154.1543 -4.875201 -10.4724 -9.282933 -0 37.60141 -0 -16.79387 9.330089 6.033166 -5.648437 5.414567 -14.07681 -0 1.139928 -0 7.65263 -13.07908 20.65498 -2.967218 -0.4468508 2.679105 -2.983367 15.06675 -3.055109 1.620959 24.66482 6.900314 6.873909 -14.13772 5.251139 3.561873 -19.50203 12.57104 87.91093 26.32139 -11.78437 -0 0 10.07568 -29.98657 11.051 14.2379 9.033603 -25.75215 -10.05463 -84.89438 5.33621 9.210875 0 0 -17.14274 24.68856 14.36608 -18.89863
-1719.57 119.8457 866.2476 -7.177011 8.473477 -154.3211 -4.48289 -14.81551 -9.347005 -0 33.77982 -0 -15.71948 7.33671 5.548837 -5.782929 6.859052 -13.40101 -0 0.09223266 -0 8.452889 -14.20361 20.49683 -3.107848 -0.5464571 2.885831 -2.307708 14.97738 -3.979954 1.180069 23.89583 7.115361 7.077627 -14.36158 4.849049 4.115272 -19.2634 12.7386 87.54207 27.25285 -12.9787 -0 0 10.29882 -28.35867 10.50992 12.8984 9.722044 -26.709 -9.607595 -84.46962 3.660901 7.963387 0 0 -19.35717 25.78505 12.76047 -20.629
-1722.177 118.9692 862.776 -6.238064 7.300486 -154.5673 -3.717859 -18.46909 -9.228571 -0 29.23746 -0 -14.35076 5.435061 4.984991 -5.836795 8.140558 -12.78239 -0 0.1551305 -0 8.389485 -15.39763 19.95942 -3.042187 -0.7081809 3.080772 -1.569348 14.64637 -4.83348 0.8615826 23.23321 7.241269 6.998984 -15.0515 4.719477 4.225139 -19.11492 12.77852 87.48305 27.32448 -14.3033 -0 0 10.45376 -26.69957 9.971305 11.79254 10.13543 -27.24713 -9.041598 -84.33822 3.414649 7.4543 0 0 -21.35022 25.67376 12.02115 -20.67808
-1724.748 118.0376 859.1112 -5.170637 6.158383 -154.8188 -2.620849 -21.37697 -9.053872 -0 24.18646 -0 -12.95124 4.092565 4.397424 -5.822346 9.402993 -12.13646 -0 1.633374 -0 7.381363 -16.64333 18.87562 -2.767186 -0.8894884 3.164183 -0.7918203 14.08752 -5.608144 0.6496756 22.78349 7.307845 6.62611 -16.2479 4.87582 3.779787 -19.00119 12.69619 87.95541 26.44863 -15.92145 -0 0 10.17429 -25.15739 9.450161 11.01842 10.15376 -27.42033 -8.478381 -84.36212 4.845945 7.601489 0 0 -23.27719 24.29158 12.30761 -18.85589
-1727.285 117.14 855.0948 -4.099874 5.12201 -154.9893 -1.31217 -23.50261 -8.939644 -0 18.73965 -0 -11.72281 3.571105 3.774069 -5.786394 10.79491 -11.3536 -0 4.69393 -0 5.595954 -17.84872 17.2343 -2.33943 -1.081498 3.087204 -0.01704712 13.35327 -6.304091 0.5322383 22.62207 7.319903 5.977761 -17.83863 5.28113 2.736185 -18.84098 12.49393 89.09385 24.71431 -17.91288 -0 0 9.172088 -23.87435 9.024734 10.58809 9.74933 -27.34914 -8.014126 -84.43263 7.780961 8.125365 0 0 -25.33521 21.79733 13.44134 -15.37131
-1729.793 116.349 850.5585 -3.222878 4.323988 -155.0093 0.06058096 -24.69383 -8.91016 -0 13.10979 -0 -10.77255 3.888223 3.029712 -5.792315 12.42048 -10.3478 -0 9.462126 -0 3.449822 -18.82901 15.28588 -1.855759 -1.316197 2.860779 0.6750114 12.53618 -6.898363 0.524799 22.79752 7.242224 5.092877 -19.53471 5.870935 1.120708 -18.53242 12.16742 90.91469 22.35169 -20.20281 -0 0 7.3308 -22.97876 8.839462 10.39598 8.998556 -27.16414 -7.70276 -84.44912 11.63377 8.59455 0 0 -27.58429 18.6328 15.01282 -10.90433
-1732.277 115.731 845.3609 -2.783075 4.013181 -154.8664 1.392046 -24.64007 -8.817739 -0 8.005939 -0 -10.13359 4.790573 2.028912 -5.857353 14.24558 -9.126873 -0 16.03804 -0 1.571709 -19.29354 13.62764 -1.408133 -1.651496 2.55479 1.149736 11.80313 -7.328944 0.6744 23.30111 7.001572 4.064972 -20.83797 6.539001 -0.892496 -17.98448 11.72944 93.22799 19.7724 -22.48833 -0 0 4.887582 -22.56801 9.07423 10.18808 8.102755 -26.97704 -7.558979 -84.28685 15.35381 8.534251 0 0 -29.69633 15.64961 16.56303 -6.743347
-1734.74 115.3925 839.484 -2.901974 4.473717 -154.6571 2.704089 -23.10795 -8.312546 -0 4.923806 -0 -9.850741 5.73746 0.7287068 -5.837171 15.83178 -7.868361 -0 24.27456 -0 0.5987089 -18.81183 13.04262 -0.9961954 -2.127051 2.316566 1.263744 11.46226 -7.549004 0.993099 23.92966 6.537632 3.140269 -21.15717 7.052128 -2.790352 -17.27064 11.27687 95.44057 17.67571 -24.22064 -0 0 2.75796 -22.60028 9.784194 9.611197 7.387263 -26.9005 -7.56831 -83.96 17.43341 7.838279 0 0 -30.76126 14.03272 17.67409 -4.637468
-1737.177 115.5344 833.1617 -3.230677 5.601791 -154.6075 4.150266 -20.46025 -7.080118 -0 5.193901 -0 -10.11731 6.171722 -0.5045606 -5.414484 16.03014 -6.840481 -0 33.40721 -0 0.6578281 -16.8979 13.65914 -0.4530367 -2.688058 2.374699 1.066879 11.90986 -7.682051 1.300797 24.17516 5.93996 2.705146 -20.47549 7.037471 -3.77966 -16.91005 11.04183 96.62958 16.77534 -24.93143 -0 0 2.402781 -22.74269 10.61111 8.583129 7.048387 -27.0743 -7.727186 -83.98996 16.83027 7.560263 0 0 -29.78976 14.36848 17.91133 -5.363698
-1739.564 116.3223 826.8226 -3.179479 6.704355 -154.9407 5.676383 -17.48547 -5.409364 -0 7.624347 -0 -11.03748 6.013037 -1.040743 -4.516997 13.72987 -6.050101 -0 42.04187 -0 1.25198 -13.6497 14.40432 0.307068 -3.176303 2.893432 0.8925011 13.20574 -7.963471 1.314107 23.70555 5.433478 2.845821 -19.81398 6.376018 -3.662655 -17.5927 11.23191 96.50993 16.8215 -24.78209 -0 0 4.265902 -22.67609 10.99705 7.687782 6.783477 -27.55434 -8.099739 -84.8986 14.55303 9.200272 0 0 -27.17456 15.57587 17.17688 -7.145588
